<svg height="40" viewBox="0 0 293 51" fill="none" xmlns="http://www.w3.org/2000/svg">
  <path
    d="M16.632 50.544C13.464 50.544 10.608 50.04 8.064 49.032C5.568 48.024 3.6 46.632 2.16 44.856C0.72 43.032 0 40.944 0 38.592C0 38.256 0.048 37.656 0.144 36.792H12.024C11.928 38.28 12.36 39.48 13.32 40.392C14.328 41.256 15.744 41.688 17.568 41.688C19.104 41.688 20.376 41.4 21.384 40.824C22.392 40.248 22.896 39.432 22.896 38.376C22.896 37.368 22.344 36.576 21.24 36C20.184 35.376 18.408 34.632 15.912 33.768C13.32 32.904 11.136 32.064 9.36 31.248C7.632 30.384 6.144 29.16 4.896 27.576C3.648 25.992 3.024 24 3.024 21.6C3.024 19.248 3.72 17.136 5.112 15.264C6.504 13.344 8.448 11.856 10.944 10.8C13.488 9.744 16.416 9.216 19.728 9.216C23.04 9.216 25.92 9.768 28.368 10.872C30.816 11.928 32.712 13.416 34.056 15.336C35.4 17.256 36.072 19.416 36.072 21.816L36 22.896H24.84C24.936 21.456 24.504 20.304 23.544 19.44C22.584 18.576 21.216 18.144 19.44 18.144C18.048 18.144 16.896 18.432 15.984 19.008C15.12 19.584 14.688 20.376 14.688 21.384C14.688 22.44 15.264 23.328 16.416 24.048C17.616 24.72 19.464 25.488 21.96 26.352C24.552 27.216 26.688 28.08 28.368 28.944C30.096 29.76 31.56 30.936 32.76 32.472C34.008 33.96 34.632 35.832 34.632 38.088C34.632 40.68 33.84 42.912 32.256 44.784C30.72 46.656 28.584 48.096 25.848 49.104C23.16 50.064 20.088 50.544 16.632 50.544Z"
    fill="#5FD4F4"
  />
  <path
    d="M65.1324 9.216C70.3164 9.216 74.4204 10.632 77.4444 13.464C80.5164 16.248 82.0524 20.064 82.0524 24.912C82.0524 26.496 81.9324 27.912 81.6924 29.16C81.5004 30.264 81.2124 31.44 80.8284 32.688H52.9644C52.9164 32.976 52.8924 33.432 52.8924 34.056C52.8924 36.168 53.4684 37.776 54.6204 38.88C55.7724 39.984 57.3084 40.536 59.2284 40.536C62.3004 40.536 64.6524 39.24 66.2844 36.648H79.3884C77.6604 40.728 74.8524 44.064 70.9644 46.656C67.0764 49.248 62.7084 50.544 57.8604 50.544C52.6764 50.544 48.5244 49.104 45.4044 46.224C42.3324 43.344 40.7964 39.432 40.7964 34.488C40.7964 33 40.9404 31.464 41.2284 29.88C41.9484 25.704 43.4364 22.056 45.6924 18.936C47.9484 15.816 50.7564 13.416 54.1164 11.736C57.4764 10.056 61.1484 9.216 65.1324 9.216ZM69.5964 26.424C69.6924 25.752 69.7404 25.296 69.7404 25.056C69.7404 23.136 69.1404 21.672 67.9404 20.664C66.7404 19.608 65.1564 19.08 63.1884 19.08C61.0764 19.08 59.2044 19.728 57.5724 21.024C55.9884 22.272 54.8364 24.072 54.1164 26.424H69.5964Z"
    fill="#5FD4F4"
  />
  <path
    d="M102.804 50.544C99.3476 50.544 96.2756 49.848 93.5876 48.456C90.8996 47.064 88.8116 45.096 87.3236 42.552C85.8836 40.008 85.1636 37.056 85.1636 33.696C85.1636 29.136 86.2436 24.984 88.4036 21.24C90.5636 17.496 93.5396 14.568 97.3316 12.456C101.124 10.296 105.348 9.216 110.004 9.216C113.46 9.216 116.532 9.936 119.22 11.376C121.956 12.768 124.068 14.736 125.556 17.28C127.044 19.824 127.788 22.776 127.788 26.136C127.788 30.744 126.684 34.92 124.476 38.664C122.316 42.36 119.316 45.264 115.476 47.376C111.684 49.488 107.46 50.544 102.804 50.544ZM104.532 39.96C106.548 39.96 108.348 39.36 109.932 38.16C111.564 36.912 112.812 35.328 113.676 33.408C114.588 31.44 115.044 29.4 115.044 27.288C115.044 24.888 114.396 23.04 113.1 21.744C111.804 20.448 110.172 19.8 108.204 19.8C106.14 19.8 104.316 20.424 102.732 21.672C101.196 22.872 99.9956 24.456 99.1316 26.424C98.2676 28.392 97.8356 30.456 97.8356 32.616C97.8356 34.968 98.4596 36.792 99.7076 38.088C100.956 39.336 102.564 39.96 104.532 39.96Z"
    fill="#5FD4F4"
  />
  <path
    d="M161.895 9.36C165.927 9.36 169.095 10.488 171.399 12.744C173.703 15 174.855 18.144 174.855 22.176C174.855 23.52 174.711 24.96 174.423 26.496L170.247 49.968H158.007L161.895 28.152C162.039 27.336 162.111 26.616 162.111 25.992C162.111 23.976 161.535 22.416 160.383 21.312C159.279 20.208 157.719 19.656 155.703 19.656C153.303 19.656 151.287 20.4 149.655 21.888C148.023 23.376 146.967 25.464 146.487 28.152V27.792L142.599 49.968H130.287L137.343 9.792H149.655L148.719 15.192C150.303 13.416 152.223 12 154.479 10.944C156.783 9.888 159.255 9.36 161.895 9.36Z"
    fill="#828282"
  />
  <path
    d="M203.859 9.216C209.043 9.216 213.147 10.632 216.171 13.464C219.243 16.248 220.779 20.064 220.779 24.912C220.779 26.496 220.659 27.912 220.419 29.16C220.227 30.264 219.939 31.44 219.555 32.688H191.691C191.643 32.976 191.619 33.432 191.619 34.056C191.619 36.168 192.195 37.776 193.347 38.88C194.499 39.984 196.035 40.536 197.955 40.536C201.027 40.536 203.379 39.24 205.011 36.648H218.115C216.387 40.728 213.579 44.064 209.691 46.656C205.803 49.248 201.435 50.544 196.587 50.544C191.403 50.544 187.251 49.104 184.131 46.224C181.059 43.344 179.523 39.432 179.523 34.488C179.523 33 179.667 31.464 179.955 29.88C180.675 25.704 182.163 22.056 184.419 18.936C186.675 15.816 189.483 13.416 192.843 11.736C196.203 10.056 199.875 9.216 203.859 9.216ZM208.323 26.424C208.419 25.752 208.467 25.296 208.467 25.056C208.467 23.136 207.867 21.672 206.667 20.664C205.467 19.608 203.883 19.08 201.915 19.08C199.803 19.08 197.931 19.728 196.299 21.024C194.715 22.272 193.563 24.072 192.843 26.424H208.323Z"
    fill="#828282"
  />
  <path
    d="M239.874 50.544C236.706 50.544 233.85 50.04 231.306 49.032C228.81 48.024 226.842 46.632 225.402 44.856C223.962 43.032 223.242 40.944 223.242 38.592C223.242 38.256 223.29 37.656 223.386 36.792H235.266C235.17 38.28 235.602 39.48 236.562 40.392C237.57 41.256 238.986 41.688 240.81 41.688C242.346 41.688 243.618 41.4 244.626 40.824C245.634 40.248 246.138 39.432 246.138 38.376C246.138 37.368 245.586 36.576 244.482 36C243.426 35.376 241.65 34.632 239.154 33.768C236.562 32.904 234.378 32.064 232.602 31.248C230.874 30.384 229.386 29.16 228.138 27.576C226.89 25.992 226.266 24 226.266 21.6C226.266 19.248 226.962 17.136 228.354 15.264C229.746 13.344 231.69 11.856 234.186 10.8C236.73 9.744 239.658 9.216 242.97 9.216C246.282 9.216 249.162 9.768 251.61 10.872C254.058 11.928 255.954 13.416 257.298 15.336C258.642 17.256 259.314 19.416 259.314 21.816L259.242 22.896H248.082C248.178 21.456 247.746 20.304 246.786 19.44C245.826 18.576 244.458 18.144 242.682 18.144C241.29 18.144 240.138 18.432 239.226 19.008C238.362 19.584 237.93 20.376 237.93 21.384C237.93 22.44 238.506 23.328 239.658 24.048C240.858 24.72 242.706 25.488 245.202 26.352C247.794 27.216 249.93 28.08 251.61 28.944C253.338 29.76 254.802 30.936 256.002 32.472C257.25 33.96 257.874 35.832 257.874 38.088C257.874 40.68 257.082 42.912 255.498 44.784C253.962 46.656 251.826 48.096 249.09 49.104C246.402 50.064 243.33 50.544 239.874 50.544Z"
    fill="#828282"
  />
  <path
    d="M280.023 36.144C279.975 36.384 279.951 36.696 279.951 37.08C279.951 37.944 280.191 38.568 280.671 38.952C281.199 39.336 282.039 39.528 283.191 39.528H287.583L285.711 49.968H279.447C271.383 49.968 267.351 46.584 267.351 39.816C267.351 38.808 267.471 37.536 267.711 36L270.591 20.016H265.695L267.495 9.792H272.391L274.119 0H286.431L284.703 9.792H292.767L290.967 20.016H282.903L280.023 36.144Z"
    fill="#828282"
  />
</svg>
